<?xml version="1.0" standalone="no"?>
<!DOCTYPE svg PUBLIC "-//W3C//DTD SVG 20010904//EN"
 "http://www.w3.org/TR/2001/REC-SVG-20010904/DTD/svg10.dtd">
<svg version="1.0" xmlns="http://www.w3.org/2000/svg"
 width="2000.000000pt" height="1500.000000pt" viewBox="0 0 2000.000000 1500.000000"
 preserveAspectRatio="xMidYMid meet">

<g transform="translate(0.000000,1500.000000) scale(0.100000,-0.100000)"
fill="#000000" stroke="none">
<path d="M4660 9719 c-356 -38 -712 -166 -1004 -361 -943 -629 -1267 -1856
-757 -2863 329 -649 937 -1088 1666 -1202 152 -24 498 -24 650 0 838 131 1517
699 1784 1492 159 473 159 957 0 1430 -28 82 -75 198 -105 258 l-55 110 28 31
c15 17 70 75 122 130 82 87 92 101 75 108 -10 4 -123 30 -251 58 l-232 51
-118 117 c-342 339 -765 553 -1238 627 -120 19 -446 27 -565 14z m441 -99
c363 -37 732 -176 1026 -387 79 -57 276 -223 270 -229 -1 -2 -41 6 -87 16 -47
11 -88 20 -92 20 -5 0 -8 -116 -7 -257 l0 -258 67 -43 c71 -45 155 -120 212
-188 l35 -42 120 129 120 128 52 -107 c29 -59 70 -162 93 -230 332 -1009 -122
-2102 -1069 -2575 -460 -230 -977 -287 -1476 -161 -576 145 -1074 535 -1358
1064 -101 189 -186 440 -224 666 -13 83 -18 163 -18 334 0 253 13 356 70 566
234 854 988 1481 1870 1557 92 8 300 6 396 -3z"/>
<path d="M4602 8858 c-156 -259 -279 -474 -275 -478 4 -4 101 -26 215 -50
l208 -43 80 77 c228 218 552 343 834 322 156 -12 344 -58 443 -110 18 -9 34
-16 38 -16 3 0 5 111 5 248 l0 247 -627 138 c-346 76 -630 137 -633 137 -3 0
-132 -212 -288 -472z"/>
<path d="M5485 8589 c-146 -18 -327 -91 -472 -191 -78 -54 -192 -168 -218
-218 -15 -29 -85 -290 -85 -318 0 -8 17 1 40 21 53 45 155 94 238 113 37 9
117 17 177 18 85 2 130 8 200 29 170 50 257 62 445 61 130 0 192 -4 243 -17
38 -9 70 -17 72 -17 2 0 1 53 -2 118 -5 101 -4 120 11 134 11 12 16 34 16 76
l0 59 -60 27 c-199 89 -418 127 -605 105z"/>
<path d="M6210 8378 c0 -18 7 -42 15 -52 18 -24 21 -166 4 -197 -5 -11 -7 -38
-4 -62 6 -39 11 -45 59 -70 28 -15 75 -47 103 -72 28 -25 53 -45 56 -45 2 0
17 51 32 114 l28 114 -27 46 c-46 78 -224 256 -257 256 -5 0 -9 -15 -9 -32z"/>
<path d="M6162 8308 c-7 -7 -12 -41 -12 -84 0 -75 12 -100 44 -88 23 9 24 169
0 178 -20 8 -18 8 -32 -6z"/>
<path d="M6160 8087 c0 -8 -13 -160 -30 -338 -75 -818 -105 -1260 -89 -1290 6
-12 21 -19 39 -19 49 0 60 9 60 50 0 38 21 67 39 56 31 -20 71 170 71 337 0
217 -43 1124 -56 1190 -6 27 -34 39 -34 14z"/>
<path d="M4180 7679 c-220 -25 -382 -72 -439 -127 -36 -35 -39 -42 -51 -132
-20 -142 -16 -381 8 -520 39 -220 125 -435 247 -621 75 -114 91 -125 235 -156
121 -26 508 -26 625 0 151 33 186 63 293 252 37 66 40 69 93 82 105 26 178 70
269 162 47 47 100 112 119 143 50 86 92 218 104 328 9 86 9 103 -7 144 -32 83
-109 119 -280 132 -106 8 -96 -2 -111 104 -4 25 -13 55 -21 67 -35 56 -211
111 -436 137 -145 17 -517 20 -648 5z m640 -70 c244 -23 381 -74 339 -125 -57
-69 -498 -119 -852 -96 -334 21 -507 66 -483 127 32 85 566 135 996 94z m653
-414 c27 -4 50 -12 53 -20 8 -21 -14 -152 -37 -223 -29 -87 -108 -201 -177
-256 -31 -25 -58 -44 -59 -42 -2 2 7 42 21 89 32 109 56 272 56 374 0 44 3 83
7 87 4 3 25 4 47 2 23 -3 63 -8 89 -11z"/>
<path d="M3735 6330 c-149 -49 -245 -121 -245 -184 0 -93 188 -187 477 -241
166 -30 286 -39 533 -39 261 0 373 9 560 45 432 83 573 239 333 367 -60 31
-203 82 -232 82 -9 0 -32 -28 -53 -64 -68 -117 -111 -162 -175 -186 -117 -44
-195 -54 -433 -54 -256 -1 -362 14 -466 64 -55 27 -68 39 -117 113 -30 45 -60
92 -66 105 -6 12 -15 22 -19 22 -4 -1 -47 -14 -97 -30z"/>
<path d="M5560 6142 c0 -42 -20 -79 -62 -118 -48 -44 -78 -61 -176 -99 -181
-69 -406 -104 -732 -112 -591 -14 -1040 94 -1141 276 l-20 36 5 -38 c7 -56 40
-101 106 -145 276 -184 916 -255 1470 -162 211 35 406 106 502 181 68 55 95
134 63 189 l-14 25 -1 -33z"/>
<path d="M7552 9080 c-166 -35 -275 -152 -276 -294 0 -81 17 -126 65 -175 55
-55 120 -84 278 -126 185 -49 221 -73 221 -150 0 -69 -83 -125 -185 -125 -95
0 -175 49 -196 121 l-12 39 -99 0 -98 0 0 -35 c0 -57 39 -144 84 -189 76 -77
171 -107 331 -107 236 0 374 103 383 286 9 167 -86 262 -319 320 -57 14 -123
33 -147 42 -87 33 -118 111 -67 172 34 39 82 54 165 49 80 -4 134 -38 148 -91
l8 -32 103 -3 104 -3 -7 43 c-17 105 -95 197 -202 237 -67 26 -211 36 -282 21z"/>
<path d="M10048 8885 l-3 -195 -35 47 c-42 56 -90 82 -163 90 -76 8 -152 -17
-211 -68 -93 -82 -132 -195 -123 -359 10 -182 85 -304 216 -348 102 -35 233 1
287 80 l29 42 3 -62 3 -62 99 0 100 0 0 515 0 515 -100 0 -100 0 -2 -195z
m-78 -247 c51 -35 74 -89 78 -185 6 -140 -43 -232 -133 -249 -133 -25 -223
127 -185 311 10 49 20 68 55 103 40 39 46 42 97 42 41 0 64 -6 88 -22z"/>
<path d="M11365 9068 c-16 -44 -345 -1011 -345 -1014 0 -2 52 -4 115 -4 l115
0 37 120 37 120 185 -2 185 -3 36 -115 36 -115 118 -3 118 -3 -8 23 c-4 13
-84 244 -179 513 l-172 490 -137 3 c-104 2 -138 0 -141 -10z m184 -323 c22
-82 49 -177 61 -209 11 -33 20 -65 20 -73 0 -10 -27 -13 -125 -13 -69 0 -125
4 -125 9 0 5 7 28 16 52 13 37 41 140 95 353 6 21 12 36 14 35 1 -2 21 -71 44
-154z"/>
<path d="M13780 8565 l0 -515 105 0 105 0 0 128 0 128 29 28 29 28 94 -137
c51 -76 100 -146 108 -157 13 -17 27 -18 133 -16 l118 3 -150 215 -149 215 22
25 c13 14 78 89 145 168 l122 142 -119 0 -120 0 -128 -152 -129 -152 -5 280
-5 279 -102 3 -103 3 0 -516z"/>
<path d="M14587 9073 c-4 -3 -7 -235 -7 -515 l0 -508 105 0 105 0 0 515 0 515
-98 0 c-54 0 -102 -3 -105 -7z"/>
<path d="M17118 8883 l-3 -196 -29 42 c-16 23 -50 54 -75 69 -39 23 -57 27
-121 27 -129 -1 -214 -58 -273 -184 -27 -57 -31 -78 -35 -176 -8 -216 65 -361
206 -409 62 -22 157 -20 207 3 39 17 105 81 105 101 0 6 5 10 10 10 6 0 10
-27 10 -60 l0 -60 100 0 100 0 0 515 0 515 -100 0 -100 0 -2 -197z m-82 -242
c18 -11 42 -40 55 -68 20 -40 24 -63 24 -138 0 -76 -4 -98 -25 -139 -34 -68
-68 -91 -135 -91 -65 0 -99 22 -135 86 -22 39 -25 56 -25 144 0 85 3 106 23
143 13 23 37 52 55 62 42 26 121 26 163 1z"/>
<path d="M8210 8910 l0 -90 -50 0 -50 0 0 -80 0 -80 50 0 50 0 0 -205 c0 -251
8 -295 64 -351 53 -53 104 -68 214 -61 46 3 86 7 89 11 3 3 0 39 -7 80 l-12
74 -55 -2 c-83 -2 -83 -1 -83 246 l0 208 70 0 70 0 0 80 0 80 -70 0 -70 0 0
90 0 90 -105 0 -105 0 0 -90z"/>
<path d="M13200 8814 c-119 -32 -210 -124 -245 -248 -27 -92 -18 -242 19 -323
51 -113 155 -188 280 -203 168 -20 321 50 377 173 33 73 28 82 -46 95 -36 7
-78 15 -95 18 -20 5 -30 3 -30 -6 0 -28 -34 -81 -65 -100 -39 -24 -113 -27
-155 -5 -16 8 -42 36 -57 62 -35 61 -45 193 -19 271 30 91 109 136 195 112 42
-11 87 -55 97 -96 7 -29 -2 -28 107 -8 97 18 99 21 68 89 -66 146 -249 218
-431 169z"/>
<path d="M15165 8820 c-63 -13 -112 -37 -156 -77 -38 -34 -86 -110 -76 -119 2
-3 43 -11 91 -20 l86 -15 31 36 c79 90 239 61 239 -44 0 -52 -11 -58 -149 -76
-134 -18 -155 -22 -206 -48 -84 -41 -115 -93 -115 -192 0 -82 15 -120 68 -167
95 -86 279 -82 370 9 l42 42 0 -49 0 -50 101 0 100 0 -3 298 -3 299 -30 49
c-65 104 -230 156 -390 124z m215 -484 c0 -55 -4 -69 -27 -97 -67 -79 -210
-80 -243 0 -15 37 -3 78 31 103 19 15 167 52 227 57 8 1 12 -18 12 -63z"/>
<path d="M16099 8817 c-54 -20 -91 -50 -119 -96 -14 -22 -28 -41 -32 -41 -5 0
-8 32 -8 70 l0 70 -95 0 -95 0 0 -385 0 -385 100 0 100 0 0 226 c0 133 5 243
11 270 30 116 191 151 256 55 22 -33 23 -40 23 -292 l0 -259 106 0 105 0 -3
293 c-3 321 -5 328 -68 401 -18 20 -52 47 -74 58 -51 26 -157 34 -207 15z"/>
<path d="M8683 8533 c4 -317 7 -336 65 -404 54 -63 103 -84 197 -84 103 0 154
26 205 103 l35 54 3 -76 3 -76 94 0 95 0 0 385 0 385 -99 0 -100 0 -3 -252
c-3 -287 -7 -301 -83 -338 -51 -25 -90 -25 -135 -2 -66 35 -70 56 -70 340 l0
252 -106 0 -105 0 4 -287z"/>
<path d="M10379 8773 c10 -26 76 -202 146 -389 140 -374 142 -387 88 -441 -22
-23 -30 -25 -84 -20 l-59 5 -20 -65 c-27 -86 -26 -91 15 -99 72 -13 188 -1
240 26 82 43 102 81 271 527 86 224 164 429 174 456 l18 47 -108 0 -107 0 -71
-207 c-39 -115 -81 -245 -94 -290 -12 -46 -26 -83 -29 -83 -4 0 -12 27 -18 61
-7 34 -45 163 -85 288 l-73 226 -112 3 -111 3 19 -48z"/>
<path d="M12110 8543 c0 -159 5 -294 10 -315 29 -104 116 -175 227 -185 103
-9 170 22 234 111 l29 39 0 -56 c0 -88 -1 -87 106 -87 l94 0 0 385 0 385 -105
0 -105 0 0 -254 c0 -246 -1 -254 -23 -287 -61 -92 -198 -88 -247 7 -12 23 -16
81 -18 282 l-3 252 -100 0 -99 0 0 -277z"/>
<path d="M7343 7584 c-37 -18 -63 -67 -63 -118 0 -35 -1 -36 -40 -36 -38 0
-40 -2 -40 -30 0 -28 2 -30 40 -30 l40 0 0 -190 0 -190 35 0 35 0 2 188 3 187
48 3 c45 3 47 5 47 33 0 28 -1 29 -50 29 -48 0 -50 1 -50 28 0 46 25 72 69 72
34 0 40 4 45 27 5 17 3 29 -6 34 -21 14 -80 10 -115 -7z"/>
<path d="M7542 7578 c-7 -7 -12 -21 -12 -33 0 -12 5 -26 12 -33 7 -7 21 -12
33 -12 12 0 26 5 33 12 7 7 12 21 12 33 0 12 -5 26 -12 33 -7 7 -21 12 -33 12
-12 0 -26 -5 -33 -12z"/>
<path d="M9332 7578 c-29 -29 -7 -78 34 -78 25 0 54 24 54 45 0 36 -62 59 -88
33z"/>
<path d="M8490 7465 c0 -96 -9 -129 -24 -90 -9 25 -69 55 -110 55 -122 0 -199
-111 -183 -265 12 -115 70 -177 173 -183 59 -4 63 -3 103 33 l41 37 0 -31 c0
-29 2 -31 35 -31 l35 0 0 290 0 290 -35 0 -35 0 0 -105z m-75 -109 c81 -34
100 -203 32 -282 -27 -31 -98 -42 -137 -22 -62 32 -89 161 -50 246 29 64 88
86 155 58z"/>
<path d="M9520 7280 l0 -290 35 0 c33 0 35 2 35 33 l0 32 23 -27 c31 -36 58
-48 112 -48 72 0 121 34 161 110 13 25 18 57 18 115 0 94 -22 147 -81 192 -31
24 -46 28 -99 28 -58 0 -66 -3 -98 -34 l-36 -35 0 107 0 107 -35 0 -35 0 0
-290z m262 63 c46 -41 64 -114 47 -191 -21 -100 -118 -145 -188 -87 -39 34
-54 82 -49 161 4 68 25 108 69 132 31 17 95 9 121 -15z"/>
<path d="M12540 7463 l0 -107 -33 32 c-88 86 -236 34 -273 -96 -34 -115 3
-245 82 -289 26 -16 56 -23 91 -23 47 0 58 4 93 36 l40 36 0 -31 c0 -29 2 -31
35 -31 l35 0 0 290 0 290 -35 0 -35 0 0 -107z m-69 -109 c80 -41 94 -206 24
-280 -25 -27 -40 -34 -69 -34 -88 0 -130 54 -131 165 0 81 21 125 69 149 40
20 70 20 107 0z"/>
<path d="M11530 7480 c0 -49 -1 -50 -30 -50 -27 0 -30 -3 -30 -30 0 -27 3 -30
30 -30 l30 0 0 -145 c0 -165 10 -204 59 -229 34 -18 97 -21 106 -5 4 5 4 20 1
33 -4 18 -11 22 -35 18 -52 -7 -62 23 -59 184 l3 139 43 3 c39 3 42 5 42 33 0
28 -2 29 -45 29 l-45 0 0 50 0 50 -35 0 -35 0 0 -50z"/>
<path d="M14770 7480 c0 -49 -1 -50 -30 -50 -27 0 -30 -3 -30 -30 0 -27 3 -30
30 -30 l30 0 0 -145 c0 -165 10 -204 59 -229 34 -18 97 -21 106 -5 4 5 4 20 1
33 -4 18 -11 22 -35 18 -52 -7 -62 23 -59 184 l3 139 43 3 c39 3 42 5 42 33 0
28 -2 29 -45 29 l-45 0 0 50 0 50 -35 0 -35 0 0 -50z"/>
<path d="M7540 7211 l0 -221 35 0 35 0 -2 218 -3 217 -32 3 -33 3 0 -220z"/>
<path d="M7727 7423 c-4 -3 -7 -102 -7 -220 l0 -213 34 0 34 0 4 153 c2 127 6
156 21 179 37 54 128 60 167 11 18 -23 20 -41 20 -184 l0 -159 35 0 35 0 0
168 c0 139 -3 173 -18 202 -43 86 -178 94 -241 14 l-21 -27 0 42 c0 38 -2 41
-28 41 -16 0 -32 -3 -35 -7z"/>
<path d="M8852 7418 c3 -7 41 -107 84 -221 l79 -208 40 3 39 3 77 200 c43 110
78 208 78 218 1 12 -7 17 -28 17 -17 0 -33 -6 -38 -12 -4 -7 -36 -91 -69 -187
l-61 -175 -17 54 c-9 30 -37 114 -64 185 l-47 130 -39 3 c-29 3 -37 0 -34 -10z"/>
<path d="M9337 7423 c-4 -3 -7 -102 -7 -220 l0 -213 35 0 35 0 0 220 0 220
-28 0 c-16 0 -32 -3 -35 -7z"/>
<path d="M10090 7408 c-77 -40 -117 -125 -107 -231 6 -70 32 -122 81 -161 30
-25 48 -31 100 -34 81 -5 127 10 166 54 38 44 38 51 -2 59 -25 6 -35 3 -47
-13 -23 -28 -54 -42 -96 -42 -67 0 -114 39 -129 108 l-8 32 163 0 162 0 -6 59
c-10 114 -71 179 -174 188 -47 4 -66 0 -103 -19z m162 -65 c23 -21 33 -38 42
-75 l6 -28 -126 0 -126 0 6 26 c17 68 72 107 139 100 21 -2 48 -13 59 -23z"/>
<path d="M10410 7422 c0 -6 36 -106 81 -223 76 -200 80 -216 70 -251 -13 -43
-44 -68 -82 -68 -19 0 -28 -6 -33 -22 -9 -37 -8 -38 43 -38 55 0 91 23 118 73
19 38 203 516 203 529 0 5 -16 8 -36 6 l-36 -3 -54 -148 c-29 -81 -56 -161
-59 -178 -8 -37 -22 -37 -30 -1 -3 15 -30 95 -59 177 l-54 150 -36 3 c-20 2
-36 -1 -36 -6z"/>
<path d="M11175 7410 c-53 -26 -79 -70 -72 -122 9 -65 35 -83 180 -123 60 -16
80 -38 69 -78 -7 -25 -54 -47 -103 -47 -34 0 -47 6 -73 33 -24 26 -36 32 -56
27 -34 -8 -36 -31 -5 -68 34 -40 82 -55 161 -50 73 5 108 25 138 80 18 32 18
40 7 77 -15 51 -47 73 -140 96 -36 9 -76 23 -88 31 -53 34 -6 104 69 104 30 0
46 -7 69 -30 24 -24 36 -28 59 -23 35 7 35 6 13 44 -38 63 -150 88 -228 49z"/>
<path d="M11773 7415 c-3 -9 -4 -87 -1 -173 3 -134 7 -163 23 -191 50 -86 182
-94 243 -16 l22 28 0 -37 c0 -35 1 -36 35 -36 l35 0 -2 218 -3 217 -32 3 -31
3 -4 -155 c-3 -138 -5 -158 -24 -183 -46 -62 -126 -67 -168 -10 -19 26 -21 45
-24 188 l-4 159 -29 0 c-17 0 -32 -6 -36 -15z"/>
<path d="M12695 7409 c4 -12 42 -113 85 -225 74 -195 76 -204 63 -235 -20 -49
-42 -69 -75 -69 -21 0 -31 -6 -37 -22 -12 -32 -6 -38 39 -38 52 0 87 17 110
55 21 34 210 522 210 543 0 7 -13 12 -34 12 -38 0 -26 26 -119 -243 l-44 -127
-64 182 -64 183 -38 3 c-36 3 -38 2 -32 -19z"/>
<path d="M13470 7419 c-37 -15 -78 -58 -85 -90 -16 -73 34 -128 136 -150 98
-21 134 -53 109 -98 -15 -30 -42 -41 -96 -41 -40 0 -51 5 -78 33 -24 25 -37
32 -55 27 -32 -7 -35 -19 -12 -56 25 -42 77 -64 147 -64 104 0 174 53 174 133
0 65 -37 92 -182 132 -80 21 -98 56 -53 100 36 37 103 35 141 -4 23 -23 35
-28 57 -24 15 3 27 8 27 12 0 20 -43 70 -73 84 -38 19 -118 21 -157 6z"/>
<path d="M13807 7423 c-4 -3 -7 -141 -7 -305 l0 -298 35 0 35 0 0 115 c0 63 2
115 4 115 2 0 20 -16 39 -35 31 -31 41 -35 86 -35 125 0 191 79 191 230 0 129
-76 220 -185 220 -42 0 -102 -29 -111 -55 -11 -27 -24 -16 -24 20 0 32 -3 35
-28 35 -16 0 -32 -3 -35 -7z m251 -73 c18 -11 40 -36 48 -55 18 -44 18 -136 0
-179 -40 -97 -166 -102 -212 -9 -24 50 -24 145 0 195 31 63 103 85 164 48z"/>
<path d="M14385 7411 c-79 -37 -115 -101 -115 -208 1 -103 47 -184 123 -212
46 -18 124 -13 167 9 144 73 141 339 -4 410 -52 25 -118 25 -171 1z m142 -61
c122 -74 76 -310 -61 -310 -79 0 -126 61 -126 162 1 131 94 205 187 148z"/>
<path d="M15085 7416 c-73 -33 -104 -112 -66 -172 20 -33 52 -48 163 -79 66
-18 87 -42 69 -81 -13 -29 -48 -44 -103 -44 -33 0 -46 6 -72 33 -24 25 -37 32
-55 27 -14 -3 -26 -10 -28 -15 -6 -20 39 -77 72 -91 43 -18 136 -18 178 0 75
32 107 112 68 172 -20 32 -41 43 -166 81 -49 15 -62 23 -70 47 -8 25 -6 31 18
52 41 35 96 33 139 -5 25 -22 40 -28 61 -24 32 6 31 5 12 43 -31 60 -146 89
-220 56z"/>
</g>
</svg>
